<svg width="22" height="22" viewBox="0 0 22 22" fill="none" xmlns="http://www.w3.org/2000/svg">
<g clip-path="url(#clip0_215_161)">
<path fill-rule="evenodd" clip-rule="evenodd" d="M9.05882 16.8235C4.77659 16.8235 1.29412 13.3411 1.29412 9.05882C1.29412 4.77659 4.77659 1.29412 9.05882 1.29412C13.3411 1.29412 16.8235 4.77659 16.8235 9.05882C16.8235 13.3411 13.3411 16.8235 9.05882 16.8235ZM15.8969 14.982C17.2765 13.3928 18.1176 11.3235 18.1176 9.05882C18.1176 4.06482 14.0528 0 9.05882 0C4.06482 0 0 4.06482 0 9.05882C0 14.0528 4.06482 18.1176 9.05882 18.1176C11.3235 18.1176 13.3928 17.2765 14.982 15.8969L20.8948 21.8111L21.8111 20.8948L15.8969 14.982Z" fill="white"/>
</g>
<defs>
<clipPath id="clip0_215_161">
<rect width="22" height="22" fill="white"/>
</clipPath>
</defs>
</svg>
