<svg width="28" height="28" viewBox="0 0 28 28" fill="none" xmlns="http://www.w3.org/2000/svg">
<path d="M6.79428 17.0625C6.77678 17.0855 6.7478 17.0959 6.71991 17.0898L3.90624 16.4412C3.48077 16.3428 3.04217 16.4166 2.67194 16.6491C2.24866 16.9148 1.97358 17.3518 1.9178 17.8484C1.86147 18.3449 2.03209 18.8322 2.38538 19.1855L8.81389 25.614C9.12288 25.923 9.53467 26.0925 9.96506 26.0919C10.0269 26.0919 10.0887 26.0887 10.151 26.0816C10.6476 26.0252 11.0845 25.7507 11.3503 25.3274C11.5827 24.9572 11.656 24.5191 11.5581 24.0937L10.9095 21.28C10.903 21.2521 10.9139 21.2226 10.9369 21.2056L13.8074 19.0433C13.9086 18.9673 14.0519 18.9771 14.1415 19.0668L19.3194 24.2452C19.671 24.5968 20.1391 24.7909 20.6362 24.7909C21.1333 24.7909 21.6015 24.5973 21.9531 24.2452L22.8254 23.3729C23.3619 22.8364 23.5194 22.0369 23.2262 21.3369L20.05 13.7468C19.951 13.51 20.0226 13.2333 20.225 13.0747L24.3987 9.80328C25.393 9.02398 26.0071 7.85367 26.0831 6.59258C26.1591 5.33148 25.6905 4.09609 24.7974 3.2025C23.9044 2.30891 22.6684 1.84023 21.4073 1.9168C20.1462 1.99281 18.9759 2.60695 18.1966 3.60117L14.9252 7.77492C14.7666 7.97726 14.4905 8.04891 14.2531 7.94992L6.66358 4.77258C5.96358 4.47945 5.16405 4.63695 4.62756 5.17398L3.7553 6.04625C3.02905 6.7725 3.02905 7.9543 3.7553 8.68055L8.93366 13.8589C9.0228 13.9486 9.03319 14.0919 8.95717 14.193L6.79428 17.0625ZM10.1707 12.6208L4.99288 7.44242C4.94913 7.39867 4.94913 7.32703 4.99288 7.28328L5.86514 6.41102C5.89741 6.37875 5.94608 6.36891 5.98819 6.38695L13.5783 9.5632C14.5397 9.9657 15.6602 9.67367 16.3028 8.85336L19.5742 4.67961C20.0451 4.07914 20.7516 3.70836 21.5129 3.66242C22.2741 3.61648 23.0206 3.89922 23.5598 4.43898C24.099 4.9782 24.3823 5.72469 24.3364 6.48594C24.2905 7.24773 23.9197 7.9543 23.3192 8.42461L19.1455 11.696C18.3251 12.3391 18.0337 13.4597 18.4356 14.4205L21.6119 22.0106C21.6294 22.0527 21.6201 22.1014 21.5878 22.1337L20.7155 23.0059C20.6718 23.0497 20.6001 23.0497 20.5564 23.0059L15.378 17.8276C14.6753 17.1248 13.5471 17.0461 12.7536 17.6438L9.88303 19.8062C9.30881 20.2387 9.04194 20.971 9.20381 21.6716L9.75999 24.0844L3.91389 18.2388L6.3267 18.795C7.02725 18.9563 7.75952 18.69 8.19209 18.1158L10.3544 15.2452C10.9527 14.4517 10.8734 13.3235 10.1707 12.6208Z" fill="#216EB1"/>
</svg>
