<svg width="55" height="55" viewBox="0 0 55 55" fill="none" xmlns="http://www.w3.org/2000/svg">
<g clip-path="url(#clip0_211_1738)">
<path d="M0.443359 5.32243L9.31429 1.77417V8.87088L0.443359 5.32243Z" fill="#F9BA48"/>
<path d="M51.7248 4.43556L47.2885 6.20978H42.137C40.6698 6.20978 39.4757 7.4039 39.4757 8.87112V12.4196C39.4757 12.7452 39.5431 13.0529 39.6505 13.3421C39.026 12.2491 38.0342 11.3806 36.8144 10.9496V9.75823C36.8146 4.37781 32.4368 0 27.0565 0C21.6763 0 17.2985 4.37781 17.2985 9.75804V10.9484C15.205 11.6893 13.7502 13.6958 13.7502 15.9676C13.7502 17.3745 14.2975 18.6884 15.2743 19.6783C14.8555 20.4501 14.6373 21.3009 14.6373 22.1772C14.6373 23.4157 15.0587 24.5901 15.8624 25.5651L14.5201 26.1754L13.9773 20.191C13.8273 18.5517 12.6379 17.2653 11.0889 16.9399V1.77422H9.31466V17.0137C7.78354 17.4546 6.65332 18.8525 6.65332 20.5248V31.7298C6.65332 34.289 8.73623 36.371 11.2945 36.371C11.8525 36.371 12.4007 36.2717 12.925 36.0756L18.1854 34.1028V55H19.9596V47.0162H34.153V55H35.9273V34.1026L41.1886 36.0754C41.7121 36.2714 42.2602 36.3708 42.8183 36.3708C45.3766 36.3708 47.4595 34.2889 47.4595 31.7296V20.5239C47.4595 19.6422 47.1374 18.8216 46.5724 18.159V15.0805H47.2883L51.7246 16.8547H54.5562V4.43556H51.7248ZM41.2501 8.87093C41.2501 8.38211 41.6475 7.98382 42.1372 7.98382H46.5726V13.3063H42.137C41.6473 13.3063 41.2499 12.908 41.2499 12.4192L41.2501 8.87093ZM40.363 15.9676C40.363 15.2322 40.1972 14.5323 39.9204 13.8866C40.2361 14.362 40.7037 14.7223 41.2501 14.9173V17.9006C40.6229 18.5073 40.2166 19.3093 40.1359 20.1919L39.5931 26.1754L38.2544 25.5668C39.0448 24.6148 39.4759 23.4289 39.4759 22.1772C39.4759 21.3007 39.2578 20.4501 38.839 19.6783C39.8157 18.6884 40.363 17.3747 40.363 15.9676ZM17.4466 24.6815C16.7785 24.0118 16.4114 23.1221 16.4114 22.1772C16.4114 21.4161 16.6632 20.6798 17.1405 20.0491L17.6781 19.3367L16.9622 18.8026C16.0494 18.1204 15.5243 17.0869 15.5243 15.9675C15.5243 14.2864 16.7184 12.8246 18.362 12.4909L19.0725 12.3464V9.75804C19.0725 5.3562 22.6537 1.77422 27.0563 1.77422C31.4589 1.77422 35.0402 5.35639 35.0402 9.75804V12.3465L35.7507 12.4911C37.3945 12.8246 38.5884 14.2866 38.5884 15.9676C38.5884 17.0872 38.0633 18.1206 37.1495 18.8028L36.4336 19.3369L36.9712 20.0492C37.4494 20.68 37.7013 21.4162 37.7013 22.1774C37.7013 23.1221 37.3341 24.012 36.7114 24.6391L36.5402 24.7881L31.4917 22.4932V20.6117C33.1115 19.3095 34.153 17.3162 34.153 15.0807V9.75804H32.3788C30.9116 9.75804 29.7175 8.56393 29.7175 7.09671H27.9436C27.9436 8.56393 26.7495 9.75804 25.2823 9.75804H19.9598V15.0805C19.9598 17.316 21.0012 19.3102 22.6211 20.6115V22.493L17.5708 24.7888L17.4466 24.6815ZM27.0565 20.4032C24.1212 20.4032 21.734 18.0161 21.734 15.0807V11.5323H25.2825C26.732 11.5323 28.0209 10.8333 28.8309 9.75543C29.6409 10.8333 30.9299 11.5323 32.3794 11.5323V15.0807C32.3792 18.0161 29.9919 20.4032 27.0565 20.4032ZM24.3952 21.6549C25.2175 21.9893 26.1152 22.1774 27.0565 22.1774C27.9978 22.1774 28.8954 21.9893 29.7179 21.6549V23.0645V23.6359V23.9516C29.7179 25.4189 28.5237 26.613 27.0565 26.613C25.5893 26.613 24.3952 25.4189 24.3952 23.9516V23.6359V23.0645V21.6549ZM22.6681 24.4207C22.9067 26.6437 24.7713 28.3868 27.0565 28.3868C29.3417 28.3868 31.2063 26.6437 31.4449 24.4207L32.3028 24.8101L27.3758 35.4835H26.737L21.811 24.8101L22.6681 24.4207ZM42.8185 34.5966C42.4735 34.5966 42.1346 34.5353 41.8116 34.4139L34.1532 31.5424V45.2418H19.9598V31.5424L12.3024 34.4139C11.9786 34.5353 11.6397 34.5966 11.2945 34.5966C9.71369 34.5966 8.42754 33.3103 8.42754 31.7296V20.5239C8.42754 19.8507 8.78336 19.2616 9.31466 18.9254V20.4032H11.0889V18.794C11.701 19.0638 12.1453 19.642 12.2102 20.3518L12.9801 28.8244L20.1957 25.5448L25.6018 37.2579H28.5105L33.9174 25.5448L41.1329 28.8244L41.8302 21.1547C42.3181 21.773 43.0651 22.1774 43.9113 22.1774C44.5951 22.1774 45.2134 21.9105 45.6855 21.4855V31.7296C45.6855 33.3105 44.3992 34.5966 42.8185 34.5966ZM44.7984 19.5161C44.7984 20.0049 44.401 20.4032 43.9113 20.4032C43.4215 20.4032 43.0242 20.0049 43.0242 19.5161V15.0805H44.7984V19.5161ZM52.7822 15.0805H52.0654L48.3466 13.5928V7.69731L52.0654 6.2096H52.7822V15.0805Z" fill="#333333"/>
<path d="M27.9432 51.4514H26.1689V54.9999H27.9432V51.4514Z" fill="#333333"/>
<path d="M30.6045 43.4675H23.5076C22.5292 43.4675 21.7334 42.6718 21.7334 41.6932V37.2579C21.7334 36.2795 22.529 35.4836 23.5076 35.4836H30.6043C31.5827 35.4836 32.3786 36.2793 32.3786 37.2579V41.6934C32.3787 42.6718 31.5829 43.4675 30.6045 43.4675Z" fill="#F9BA48"/>
</g>
<defs>
<clipPath id="clip0_211_1738">
<rect width="55" height="55" fill="white"/>
</clipPath>
</defs>
</svg>
