<svg width="61" height="61" viewBox="0 0 61 61" fill="none" xmlns="http://www.w3.org/2000/svg">
<g clip-path="url(#clip0_211_1801)">
<path d="M6.61514 11.8065C3.3595 11.8065 0.711914 9.15887 0.711914 5.90323C0.711914 2.64758 3.3595 0 6.61514 0C9.87078 0 12.5184 2.64758 12.5184 5.90323C12.5184 9.15887 9.87078 11.8065 6.61514 11.8065Z" fill="#F9BA48"/>
<path d="M59.5954 35.326C58.8771 34.6747 57.9139 34.3569 56.9339 34.4532C56.4657 34.5005 56.0287 34.655 55.6351 34.8831C55.1943 33.488 53.9035 32.4677 52.3656 32.4677C51.4014 32.4677 50.5316 32.8681 49.9059 33.5085C49.2802 32.8679 48.4104 32.4677 47.4462 32.4677C46.9158 32.4677 46.419 32.5984 45.9704 32.8129V25.2293C45.9704 23.4032 44.6126 21.837 42.8781 21.6628C41.9002 21.5625 40.9349 21.8843 40.2166 22.5356C39.4965 23.1868 39.0832 24.1177 39.0832 25.0887V43.6279L35.3347 39.8802C33.7891 38.3327 31.3579 38.2175 29.8045 39.6174C28.9918 40.3495 28.5294 41.352 28.5009 42.4422C28.4734 43.5166 29.1167 44.5684 29.8763 45.3278L40.0672 55.2935V61H42.0349V54.4789L31.2685 43.9366C30.8829 43.551 30.566 43.0383 30.5807 42.4932C30.5954 41.9481 30.7715 41.4462 31.1778 41.0793C31.9422 40.3907 33.181 40.4793 33.973 41.2712L41.051 48.3777V25.0887C41.051 24.6666 41.2241 24.2781 41.5371 23.9937C41.85 23.7103 42.2631 23.5785 42.6822 23.6207C43.4221 23.6946 44.0027 24.4009 44.0027 25.2293V35.9112V40.3386H45.9704V35.9112C45.9704 35.0974 46.6326 34.4354 47.4462 34.4354C48.2599 34.4354 48.9219 35.0976 48.9219 35.9112V40.3386H50.8897V35.9112C50.8897 35.0974 51.5519 34.4354 52.3654 34.4354C53.179 34.4354 53.8412 35.0976 53.8412 35.9112V38.0195V41.3224H55.8089V38.0195C55.8089 37.1921 56.3895 36.4846 57.1293 36.4109C57.5563 36.3666 57.9626 36.5014 58.2745 36.7839C58.5875 37.0683 58.7606 37.4568 58.7606 37.8789V56.0806C58.7606 56.6227 58.3199 57.0645 57.7767 57.0645H56.7927V61H58.7604V58.8639C59.9056 58.4576 60.7282 57.3636 60.7282 56.0806V37.8789C60.7288 36.9079 60.3155 35.9773 59.5954 35.326Z" fill="#333333"/>
<path d="M41.0515 9.83871V19.6774H43.0192V9.83871C43.0192 4.41362 38.6056 0 33.1805 0C27.7554 0 23.3418 4.41362 23.3418 9.83871V15.7419H25.3095V9.83871C25.3095 5.49876 28.8406 1.96774 33.1805 1.96774C37.5205 1.96774 41.0515 5.49876 41.0515 9.83871Z" fill="#333333"/>
<path d="M25.3095 29.5161H23.3418V33.4516H25.3095V29.5161Z" fill="#333333"/>
<path d="M25.3095 35.4194H23.3418V39.3549H25.3095V35.4194Z" fill="#333333"/>
<path d="M23.3413 45.2581V51.1614C23.3413 55.5013 19.8103 59.0323 15.4704 59.0323C11.1304 59.0323 7.59939 55.5013 7.59939 51.1614V16.3501L12.0789 18.5894L12.9594 16.8293L6.61541 13.6582L0.272461 16.8301L1.15296 18.5903L5.63165 16.3501V51.1614C5.63165 56.5865 10.0453 61.0001 15.4704 61.0001C20.8954 61.0001 25.3091 56.5865 25.3091 51.1614V45.2581V41.3227H23.3413V45.2581Z" fill="#333333"/>
<path d="M25.3095 17.7097H23.3418V21.6452H25.3095V17.7097Z" fill="#333333"/>
<path d="M25.3095 23.6128H23.3418V27.5483H25.3095V23.6128Z" fill="#333333"/>
</g>
<defs>
<clipPath id="clip0_211_1801">
<rect width="61" height="61" fill="white"/>
</clipPath>
</defs>
</svg>
