<svg width="16" height="16" viewBox="0 0 16 16" fill="none" xmlns="http://www.w3.org/2000/svg">
<g clip-path="url(#clip0_3_520)">
<path d="M0.148693 8.35375L2.64869 10.8537C2.74251 10.9476 2.86976 11.0003 3.00244 11.0003C3.13513 11.0003 3.26237 10.9476 3.35619 10.8537C3.45001 10.7599 3.50272 10.6327 3.50272 10.5C3.50272 10.3673 3.45001 10.2401 3.35619 10.1462L1.70869 8.5H10.9999C11.1326 8.5 11.2597 8.44732 11.3535 8.35355C11.4473 8.25978 11.4999 8.13261 11.4999 8C11.4999 7.86739 11.4473 7.74021 11.3535 7.64645C11.2597 7.55268 11.1326 7.5 10.9999 7.5H1.70869L3.35619 5.85375C3.40265 5.80729 3.4395 5.75214 3.46464 5.69145C3.48978 5.63075 3.50272 5.5657 3.50272 5.5C3.50272 5.4343 3.48978 5.36925 3.46464 5.30855C3.4395 5.24785 3.40265 5.1927 3.35619 5.14625C3.30974 5.09979 3.25459 5.06294 3.19389 5.0378C3.13319 5.01266 3.06814 4.99972 3.00244 4.99972C2.93675 4.99972 2.87169 5.01266 2.81099 5.0378C2.7503 5.06294 2.69515 5.09979 2.64869 5.14625L0.148693 7.64625C0.125818 7.6695 0.104943 7.69462 0.086193 7.72125C0.086193 7.72125 0.086193 7.735 0.076193 7.74125C0.0623439 7.76211 0.0506187 7.7843 0.041193 7.8075C0.0372997 7.8173 0.0339611 7.82732 0.031193 7.8375C0.0230689 7.85815 0.0167942 7.87949 0.012443 7.90125C-0.000892467 7.96641 -0.000892467 8.03359 0.012443 8.09875C0.016943 8.1205 0.023193 8.14175 0.031193 8.1625C0.033943 8.17262 0.037318 8.18275 0.041193 8.1925C0.050693 8.21525 0.062443 8.23712 0.076193 8.2575C0.076193 8.265 0.082443 8.27125 0.086193 8.2775C0.104943 8.3045 0.125818 8.33 0.148693 8.35375ZM4.03994 12.7287C6.64944 15.194 10.7633 15.0771 13.2286 12.4676C15.0878 10.4997 15.5326 7.58537 14.3449 5.1525C12.9987 2.3875 9.09494 0.476249 5.65494 2.1525C5.06364 2.44078 4.51953 2.81715 4.04119 3.26875C3.94456 3.35975 3.81572 3.40864 3.68304 3.40465C3.55036 3.40067 3.4247 3.34414 3.33369 3.2475C3.24269 3.15086 3.1938 3.02203 3.19779 2.88935C3.20178 2.75667 3.2583 2.631 3.35494 2.54C3.90713 2.0195 4.53512 1.58581 5.21744 1.25375C8.40744 -0.296251 13.3099 0.749999 15.2499 4.7175C17.0648 8.44087 15.5177 12.9305 11.7943 14.7454C8.98932 16.1126 5.63082 15.6002 3.36119 13.4587C3.27063 13.3666 3.21928 13.2429 3.21791 13.1137C3.21654 12.9844 3.26526 12.8597 3.35385 12.7656C3.44245 12.6715 3.56403 12.6154 3.6931 12.609C3.82218 12.6026 3.94872 12.6464 4.04619 12.7312L4.03994 12.7287Z" fill="black"/>
</g>
<defs>
<clipPath id="clip0_3_520">
<rect width="16" height="16" fill="white"/>
</clipPath>
</defs>
</svg>
