<svg width="32" height="32" viewBox="0 0 32 32" fill="none" xmlns="http://www.w3.org/2000/svg">
<path d="M16.0003 29.3334C23.3641 29.3334 29.3337 23.3639 29.3337 16.0001C29.3337 8.63628 23.3641 2.66675 16.0003 2.66675C8.63653 2.66675 2.66699 8.63628 2.66699 16.0001C2.66699 23.3639 8.63653 29.3334 16.0003 29.3334Z" fill="white"/>
<path fill-rule="evenodd" clip-rule="evenodd" d="M19.5437 11.3053C19.1281 11.2221 18.5669 11.1601 18.2139 11.1601C17.2581 11.1601 17.1961 11.5756 17.1961 12.2405V13.4241H19.5853L19.377 15.8759H17.1961V23.3334H14.2045V15.8759H12.667V13.4241H14.2045V11.9076C14.2045 9.83028 15.1809 8.66675 17.6321 8.66675C18.4838 8.66675 19.1071 8.79141 19.9172 8.95761L19.5437 11.3053Z" fill="#3B5998"/>
</svg>
