<svg width="32" height="32" viewBox="0 0 32 32" fill="none" xmlns="http://www.w3.org/2000/svg">
<path d="M19.7333 10.8371C19.4153 9.65014 20.1197 8.43013 21.3066 8.11211C22.4936 7.79409 23.7136 8.49848 24.0316 9.68541C24.3496 10.8723 23.6452 12.0923 22.4583 12.4104C21.2714 12.7284 20.0514 12.024 19.7333 10.8371Z" fill="#216EB1"/>
<path d="M16.7754 14.9C17.1504 14.8 17.5254 15 17.6504 15.4L19.5254 22.325C19.8254 23.55 20.9004 24.45 22.1254 24.55C22.2254 24.55 22.3754 24.55 22.3754 24.55H25.0754C25.4754 24.55 25.7754 24.85 25.7754 25.25C25.7504 25.675 25.4504 25.975 25.0504 25.975H22.3504C22.3504 25.975 22.1504 25.975 21.9754 25.95C20.1254 25.8 18.6004 24.5 18.1254 22.675L16.2754 15.75C16.1754 15.4 16.4004 15.025 16.7754 14.9Z" fill="#216EB1"/>
<path d="M22.275 23.425C21.425 23.375 20.75 22.775 20.55 21.975L18.625 14.85C18.45 14.175 18.85 13.475 19.525 13.325C19.575 13.325 19.8 13.3 19.8 13.3C21.6 13.125 23.325 14.25 23.8 16.075C23.8 16.1 23.875 16.375 23.9 16.5C24.275 17.925 24.475 19.325 24.575 20.725H28.3C28.625 20.725 29 20.875 29.275 21.15C29.55 21.4 29.45 22.275 29.45 22.625V29.05C29.45 29.825 29.075 29.95 28.3 29.95C27.525 29.95 26.9 29.325 26.9 28.55V23.425H22.45H22.275Z" fill="#216EB1"/>
</svg>
