<svg width="15" height="15" viewBox="0 0 15 15" fill="none" xmlns="http://www.w3.org/2000/svg">
<g clip-path="url(#clip0_3_502)">
<path d="M14.0625 8.90564V11.7181C14.0625 12.0911 13.9143 12.4488 13.6506 12.7125C13.3869 12.9762 13.0292 13.1244 12.6562 13.1244H2.34375C1.97079 13.1244 1.6131 12.9762 1.34938 12.7125C1.08566 12.4488 0.9375 12.0911 0.9375 11.7181V6.09314C0.9375 5.72018 1.08566 5.36249 1.34938 5.09877C1.6131 4.83505 1.97079 4.68689 2.34375 4.68689H12.6562C13.0292 4.68689 13.3869 4.83505 13.6506 5.09877C13.9143 5.36249 14.0625 5.72018 14.0625 6.09314V8.90564ZM15 8.90564V6.09314C15 5.47154 14.7531 4.8754 14.3135 4.43586C13.874 3.99632 13.2779 3.74939 12.6562 3.74939H2.34375C1.72215 3.74939 1.12601 3.99632 0.686468 4.43586C0.24693 4.8754 0 5.47154 0 6.09314L0 11.7181C0 12.3397 0.24693 12.9359 0.686468 13.3754C1.12601 13.815 1.72215 14.0619 2.34375 14.0619H12.6562C13.2779 14.0619 13.874 13.815 14.3135 13.3754C14.7531 12.9359 15 12.3397 15 11.7181V8.90564ZM3.75 4.21814V13.5931C3.75 13.7175 3.79939 13.8367 3.88729 13.9246C3.9752 14.0125 4.09443 14.0619 4.21875 14.0619C4.34307 14.0619 4.4623 14.0125 4.55021 13.9246C4.63811 13.8367 4.6875 13.7175 4.6875 13.5931V4.21814C4.6875 4.09382 4.63811 3.97459 4.55021 3.88668C4.4623 3.79878 4.34307 3.74939 4.21875 3.74939C4.09443 3.74939 3.9752 3.79878 3.88729 3.88668C3.79939 3.97459 3.75 4.09382 3.75 4.21814ZM10.3125 4.21814V13.5931C10.3125 13.7175 10.3619 13.8367 10.4498 13.9246C10.5377 14.0125 10.6569 14.0619 10.7812 14.0619C10.9056 14.0619 11.0248 14.0125 11.1127 13.9246C11.2006 13.8367 11.25 13.7175 11.25 13.5931V4.21814C11.25 4.09382 11.2006 3.97459 11.1127 3.88668C11.0248 3.79878 10.9056 3.74939 10.7812 3.74939C10.6569 3.74939 10.5377 3.79878 10.4498 3.88668C10.3619 3.97459 10.3125 4.09382 10.3125 4.21814ZM10.3125 4.21814V2.34314C10.3125 1.97018 10.1643 1.61249 9.90062 1.34877C9.6369 1.08505 9.27921 0.93689 8.90625 0.93689H6.09375C5.72079 0.93689 5.3631 1.08505 5.09938 1.34877C4.83566 1.61249 4.6875 1.97018 4.6875 2.34314V4.21814C4.6875 4.34246 4.73689 4.46169 4.82479 4.5496C4.9127 4.6375 5.03193 4.68689 5.15625 4.68689C5.28057 4.68689 5.3998 4.6375 5.48771 4.5496C5.57561 4.46169 5.625 4.34246 5.625 4.21814V2.34314C5.625 2.21882 5.67439 2.09959 5.76229 2.01168C5.8502 1.92378 5.96943 1.87439 6.09375 1.87439H8.90625C9.03057 1.87439 9.1498 1.92378 9.23771 2.01168C9.32561 2.09959 9.375 2.21882 9.375 2.34314V4.21814C9.375 4.34246 9.42439 4.46169 9.51229 4.5496C9.6002 4.6375 9.71943 4.68689 9.84375 4.68689C9.96807 4.68689 10.0873 4.6375 10.1752 4.5496C10.2631 4.46169 10.3125 4.34246 10.3125 4.21814Z" fill="black"/>
</g>
<defs>
<clipPath id="clip0_3_502">
<rect width="15" height="15" fill="white"/>
</clipPath>
</defs>
</svg>
