<svg width="10" height="16" viewBox="0 0 10 16" fill="none" xmlns="http://www.w3.org/2000/svg">
<path d="M4.98014 7.62914C3.81457 8.90067 3.49669 9.53643 3.39073 10.9139H5.93378C5.93378 10.3841 6.1457 9.85431 6.99338 8.90067C8.15895 7.62914 9.53643 6.35762 9.53643 4.45033C9.53643 1.5894 7.62914 0 4.66226 0C2.75497 0 1.0596 0.741722 0 1.90729V4.55629C1.0596 3.49669 2.64901 2.43709 4.55629 2.43709C6.1457 2.43709 6.99338 3.17881 6.99338 4.55629C6.99338 5.93378 5.82782 6.6755 4.98014 7.62914ZM2.75497 14.1987C2.75497 15.1523 3.49669 16 4.45033 16C5.40398 16 6.1457 15.2583 6.1457 14.1987C6.1457 13.1391 5.40398 12.3974 4.45033 12.3974C3.49669 12.3974 2.75497 13.245 2.75497 14.1987Z" fill="white"/>
</svg>
