<svg width="15" height="15" viewBox="0 0 15 15" fill="none" xmlns="http://www.w3.org/2000/svg">
<g clip-path="url(#clip0_3_506)">
<path d="M13.0592 3.44297C13.0598 3.43517 13.0598 3.42734 13.0592 3.41953V1.94532C13.0604 1.64405 12.9908 1.34671 12.8558 1.07737C12.7208 0.808023 12.5243 0.574237 12.2822 0.394926C12.0378 0.210281 11.7534 0.0855713 11.452 0.0308218C11.1505 -0.0239277 10.8405 -0.00718933 10.5467 0.0796913H10.5268L2.07402 3.38789C2.04658 3.39897 2.02028 3.41271 1.99551 3.42891C1.48842 3.55511 1.03804 3.84715 0.715947 4.25864C0.39385 4.67012 0.218506 5.17745 0.217773 5.7V15H12.4381C13.7325 15 14.7818 13.9507 14.7818 12.6563V5.7C14.7812 5.18713 14.6123 4.68863 14.3012 4.28094C13.99 3.87325 13.5537 3.57888 13.0592 3.44297ZM10.8279 0.975004C10.9795 0.933155 11.1386 0.926713 11.293 0.956177C11.4475 0.985641 11.5931 1.05022 11.7186 1.14493C11.8435 1.23764 11.9449 1.35834 12.0147 1.49734C12.0845 1.63634 12.1207 1.78977 12.1205 1.94532V3.35157H4.73184L10.8279 0.975004ZM13.8443 12.6563C13.8443 13.4329 13.2147 14.0625 12.4381 14.0625H1.15527V5.7C1.15527 4.9234 1.78492 4.29375 2.56152 4.29375H12.4381C13.2147 4.29375 13.8443 4.9234 13.8443 5.7V12.6563ZM11.149 7.49297C10.2183 7.49297 9.46387 8.24743 9.46387 9.17813C9.46387 10.1088 10.2183 10.8633 11.149 10.8633C12.0797 10.8633 12.8342 10.1088 12.8342 9.17813C12.8329 8.24848 12.0798 7.49496 11.1502 7.49297H11.149ZM11.149 9.92578C11.0012 9.92578 10.8566 9.88194 10.7336 9.79978C10.6107 9.71763 10.5149 9.60086 10.4583 9.46424C10.4017 9.32763 10.3869 9.1773 10.4157 9.03227C10.4446 8.88724 10.5158 8.75402 10.6204 8.64946C10.7249 8.54489 10.8581 8.47369 11.0032 8.44484C11.1482 8.41599 11.2985 8.4308 11.4351 8.48738C11.5718 8.54397 11.6885 8.6398 11.7707 8.76275C11.8528 8.8857 11.8967 9.03026 11.8967 9.17813C11.8964 9.37612 11.8177 9.56593 11.6778 9.70605C11.5379 9.84616 11.3482 9.92517 11.1502 9.92578H11.149Z" fill="black"/>
</g>
<defs>
<clipPath id="clip0_3_506">
<rect width="15" height="15" fill="white"/>
</clipPath>
</defs>
</svg>
