<svg width="16" height="16" viewBox="0 0 16 16" fill="none" xmlns="http://www.w3.org/2000/svg">
<g clip-path="url(#clip0_3_518)">
<path d="M8.36091 14.2167L1.96891 7.55C1.66354 7.24577 1.42108 6.88438 1.25538 6.48645C1.08969 6.08852 1.00399 5.66185 1.00318 5.2308C1.00238 4.79975 1.08648 4.37276 1.25069 3.97422C1.41491 3.57567 1.65601 3.21337 1.96024 2.908C2.26447 2.60264 2.62586 2.36018 3.02379 2.19448C3.42172 2.02878 3.84839 1.94308 4.27944 1.94228C4.71049 1.94148 5.13748 2.02558 5.53603 2.18979C5.93457 2.354 6.29687 2.59511 6.60224 2.89934L7.64691 3.94334C7.74066 4.03697 7.86774 4.08956 8.00024 4.08956C8.13274 4.08956 8.25982 4.03697 8.35357 3.94334L9.39757 2.89934C9.70233 2.59454 10.0641 2.35275 10.4623 2.18778C10.8605 2.02281 11.2873 1.93788 11.7183 1.93785C12.1494 1.93782 12.5762 2.02268 12.9744 2.1876C13.3726 2.35251 13.7344 2.59425 14.0392 2.899C14.344 3.20376 14.5858 3.56556 14.7508 3.96376C14.9158 4.36196 15.0007 4.78875 15.0007 5.21977C15.0008 5.65079 14.9159 6.07759 14.751 6.47581C14.5861 6.87403 14.3443 7.23587 14.0396 7.54067L7.63957 14.2167H8.36091ZM7.63957 14.9087C7.68623 14.9573 7.74223 14.9959 7.80421 15.0223C7.86619 15.0488 7.93287 15.0624 8.00024 15.0624C8.06761 15.0624 8.13429 15.0488 8.19627 15.0223C8.25824 14.9959 8.31425 14.9573 8.36091 14.9087L14.7542 8.24C15.5543 7.43671 16.0028 6.34874 16.0013 5.21501C15.9998 4.08129 15.5484 2.99451 14.7462 2.19334C13.9433 1.39032 12.8543 0.939124 11.7187 0.938999C10.5831 0.938874 9.49401 1.38983 8.69091 2.19267L7.64691 3.236H8.35357L7.30957 2.192C6.50632 1.3891 5.41702 0.938181 4.2813 0.938431C3.14558 0.938681 2.05647 1.39008 1.25357 2.19334C0.450673 2.99659 -0.000249945 4.08589 1.03938e-07 5.22161C0.000250152 6.35733 0.451653 7.44644 1.25491 8.24934L7.63957 14.9087Z" fill="black"/>
</g>
<defs>
<clipPath id="clip0_3_518">
<rect width="16" height="16" fill="white"/>
</clipPath>
</defs>
</svg>
