<svg width="24" height="24" viewBox="0 0 24 24" fill="none" xmlns="http://www.w3.org/2000/svg">
<path d="M13.7317 12.0038L7.00729 5.53908C6.82213 5.3615 6.72028 5.12407 6.72028 4.87092C6.72028 4.61762 6.82213 4.38033 7.00729 4.20247L7.59652 3.63631C7.78139 3.45817 8.02851 3.36011 8.29185 3.36011C8.55519 3.36011 8.80202 3.45817 8.98703 3.63631L16.9935 11.3331C17.1793 11.5115 17.281 11.7499 17.2803 12.0033C17.281 12.2579 17.1794 12.496 16.9935 12.6746L8.99449 20.3639C8.80948 20.542 8.56265 20.6401 8.29916 20.6401C8.03582 20.6401 7.78899 20.542 7.60383 20.3639L7.01475 19.7977C6.63142 19.4292 6.63142 18.8294 7.01475 18.461L13.7317 12.0038Z" fill="#3E66DF"/>
</svg>
