<svg width="32" height="32" viewBox="0 0 32 32" fill="none" xmlns="http://www.w3.org/2000/svg">
<path d="M16.94 26.68H14.02C13.02 26.68 12.18 25.84 12.18 24.84V18.28H11.34C10.34 18.28 9.5 17.44 9.5 16.44V13.96C9.5 12.96 10.34 12.12 11.34 12.12H12.22V11.32C12.22 7.64001 14.34 5.32001 17.78 5.32001C18.98 5.32001 20.02 5.40001 20.46 5.44001C21.38 5.56001 22.06 6.36001 22.06 7.28001V9.76001C22.06 10.76 21.22 11.6 20.22 11.6H18.86V12.12H20.14C21.14 12.12 21.98 12.96 21.98 13.96C21.98 14.08 21.98 14.16 21.94 14.28L21.54 16.68C21.42 17.56 20.62 18.24 19.7 18.24H18.86V24.8C18.82 25.84 17.98 26.68 16.94 26.68ZM11.34 13.8C11.26 13.8 11.18 13.88 11.18 13.96V16.44C11.18 16.52 11.26 16.6 11.34 16.6H13.06C13.54 16.6 13.9 16.96 13.9 17.44V24.8C13.9 24.88 13.98 24.96 14.06 24.96H16.98C17.06 24.96 17.14 24.88 17.14 24.8V17.44C17.14 16.96 17.5 16.6 17.98 16.6H19.66C19.74 16.6 19.82 16.52 19.82 16.44L20.22 13.96C20.22 13.88 20.14 13.8 20.06 13.8H17.94C17.46 13.8 17.1 13.44 17.1 12.96V11.28C17.1 10.92 17.14 10.68 17.22 10.48C17.3 10.28 17.42 10.16 17.62 10.08C17.82 9.96001 18.1 9.92001 18.5 9.92001H20.18C20.26 9.92001 20.34 9.84001 20.34 9.76001V7.28001C20.34 7.20001 20.26 7.12001 20.18 7.12001C19.86 7.08001 18.86 7.00001 17.74 7.00001C14.38 7.00001 13.86 9.72001 13.86 11.32V12.96C13.86 13.44 13.5 13.8 13.02 13.8H11.34Z" fill="white"/>
</svg>
