<svg width="20" height="20" viewBox="0 0 20 20" fill="none" xmlns="http://www.w3.org/2000/svg">
<g clip-path="url(#clip0_206_717)">
<path fill-rule="evenodd" clip-rule="evenodd" d="M17.1232 5.40215C16.9726 5.51979 16.8879 5.70215 16.8973 5.89273C16.9032 6.06333 16.9079 6.23391 16.9079 6.40685C16.9079 11.9316 13.0173 17.648 6.50673 17.648C5.23379 17.648 3.97967 17.3951 2.80085 16.9068C4.22203 16.6716 5.57614 16.048 6.70674 15.0963C6.89379 14.9374 6.96319 14.681 6.88203 14.4504C6.80085 14.2198 6.58438 14.0633 6.3385 14.0574C5.24085 14.0351 4.24672 13.4045 3.66791 12.4198C4.06437 12.408 4.49144 12.3457 4.81144 12.2527C5.07027 12.1774 5.24438 11.9363 5.23614 11.668C5.22674 11.3986 5.03614 11.1704 4.77261 11.1127C3.60438 10.8598 2.74438 9.89626 2.45379 8.57273C2.78791 8.63979 3.1032 8.66096 3.27733 8.66567C3.53379 8.69391 3.77027 8.51509 3.85496 8.26921C3.93851 8.0245 3.85261 7.75273 3.64203 7.60097C2.82909 7.01509 1.9585 5.92215 1.9585 4.61743C1.9585 4.29626 1.9985 3.97862 2.07496 3.67155C4.10791 5.93391 6.88203 7.29978 9.82319 7.45862C10.0209 7.4692 10.1844 7.39155 10.3032 7.25273C10.422 7.11391 10.4691 6.92567 10.4314 6.74685C10.3726 6.47979 10.3432 6.20333 10.3432 5.92333C10.3432 3.95509 11.8126 2.35391 13.6185 2.35391C14.5267 2.35391 15.3714 2.74802 15.995 3.46568C16.1338 3.62568 16.3526 3.69979 16.5597 3.65509C16.8585 3.59155 17.1526 3.51155 17.442 3.41391C17.2703 3.58802 17.0809 3.74333 16.875 3.87626C16.6432 4.02567 16.5467 4.31391 16.6409 4.57273C16.735 4.83155 17.0009 4.98802 17.2691 4.95391C17.422 4.93391 17.5738 4.91038 17.7244 4.88097C17.5338 5.06567 17.3338 5.23979 17.1232 5.40215ZM19.8491 3.32215C19.675 3.12802 19.395 3.07392 19.1573 3.1845C19.115 3.2045 19.0726 3.2245 19.0291 3.2445C19.2067 2.9292 19.3514 2.59155 19.4561 2.23744C19.5267 2.00215 19.4432 1.74802 19.2467 1.59979C19.0491 1.45273 18.7832 1.44097 18.575 1.57391C17.9679 1.96333 17.315 2.2492 16.6326 2.4292C15.8173 1.6292 14.7373 1.17743 13.6185 1.17743C11.1644 1.17743 9.16673 3.30685 9.16673 5.92333C9.16673 6.02215 9.16909 6.12097 9.17496 6.21862C6.52086 5.87509 4.06791 4.42685 2.36086 2.17155C2.24086 2.01273 2.04675 1.93155 1.84792 1.94097C1.64792 1.95626 1.4691 2.07155 1.3738 2.24802C0.986745 2.96567 0.782037 3.78567 0.782037 4.61744C0.782037 5.51979 1.08086 6.33626 1.51381 7.02097C1.31145 7.11509 1.17027 7.31862 1.17027 7.55626V7.61038C1.17027 9.06685 1.6891 10.3386 2.56086 11.1986C2.46675 11.2292 2.38086 11.2845 2.31145 11.3586C2.24267 11.4336 2.19448 11.5252 2.17159 11.6243C2.14871 11.7235 2.1519 11.8269 2.18086 11.9245C2.60557 13.3516 3.61615 14.4468 4.87263 14.9433C3.59263 15.668 2.0738 15.9551 0.659683 15.7845C0.383214 15.7433 0.133797 15.908 0.0385058 16.1598C-0.0579629 16.4127 0.0314538 16.6998 0.254975 16.8527C2.12675 18.1421 4.2891 18.8245 6.50675 18.8245C13.7538 18.8245 18.0844 12.5104 18.0844 6.40685C18.0844 6.31744 18.0832 6.2292 18.0809 6.14097C18.795 5.54567 19.4091 4.83509 19.9115 4.02567C20.0491 3.80333 20.0244 3.51626 19.8491 3.32215Z" fill="white"/>
</g>
<defs>
<clipPath id="clip0_206_717">
<rect width="20" height="20" fill="white"/>
</clipPath>
</defs>
</svg>
