<svg width="52" height="52" viewBox="0 0 52 52" fill="none" xmlns="http://www.w3.org/2000/svg">
<path d="M29.3428 34.332C35.8051 34.332 41.0439 29.0932 41.0439 22.6308C41.0439 16.1685 35.8051 10.9297 29.3428 10.9297C22.8804 10.9297 17.6416 16.1685 17.6416 22.6308C17.6416 29.0932 22.8804 34.332 29.3428 34.332Z" fill="#F9BA48"/>
<path d="M46.7035 3.40755C40.8363 3.40755 35.1002 2.30261 29.6542 0.124634L29.3432 0L29.0331 0.124456C23.5863 2.30261 17.8501 3.40738 11.9829 3.40738H10.1198V20.9592H5.94089C4.55851 20.9592 3.43359 22.0841 3.43359 23.4665V37.6751C3.43359 39.0575 4.55851 40.1826 5.94089 40.1826H13.463C13.4646 40.1826 13.4655 40.1826 13.4671 40.1826C15.4412 43.3193 18.1768 45.9102 21.4381 47.6881L29.343 52L37.2479 47.6881C44.2301 43.8802 48.5662 36.5745 48.5662 28.622V3.40755H46.7035ZM5.10501 37.6751V23.4665C5.10501 23.0059 5.47945 22.6308 5.94072 22.6308H13.4628C13.9241 22.6308 14.2985 23.0061 14.2985 23.4665V37.6751C14.2985 38.1357 13.9241 38.511 13.4628 38.511H5.94089C5.47944 38.511 5.10501 38.1357 5.10501 37.6751ZM15.9704 25.1308C18.7613 24.9796 20.9852 22.6609 20.9852 19.8336V15.5266C20.9852 14.375 21.9222 13.4371 23.0748 13.4371C24.2273 13.4371 25.1643 14.3748 25.1643 15.5266V20.7871C25.1643 22.2647 26.3662 23.4667 27.8438 23.4667H33.9711C35.5665 23.4667 36.8654 24.7647 36.8654 26.3611V35.6166C36.8654 37.213 35.5667 38.511 33.9711 38.511H21.6564C20.9927 38.511 20.3776 38.1808 20.009 37.6293C19.3304 36.6114 18.1944 36.0037 16.9709 36.0037H15.9704V25.1308ZM46.8948 28.6218C46.8948 35.9618 42.8923 42.7058 36.4482 46.2203L29.3432 50.0959L22.2382 46.2203C19.3304 44.6339 16.8732 42.3497 15.0663 39.5865C15.5735 39.1602 15.9072 38.5419 15.9539 37.8397C17.6404 40.7491 20.0693 43.1328 23.0389 44.7525L29.3434 48.1918L35.6478 44.7525C41.5545 41.5313 45.2236 35.3506 45.2236 28.6225V15.9444H43.552V28.6227C43.552 34.7381 40.2172 40.3573 34.8479 43.2851L29.3434 46.2873L23.8388 43.2851C21.4836 42.0004 19.5051 40.1851 18.0183 37.9886C18.2515 38.1348 18.4605 38.3204 18.6184 38.557C19.2971 39.5749 20.433 40.1826 21.6565 40.1826H33.9712C36.4894 40.1826 38.5372 38.1341 38.5372 35.6166V26.3611C38.5372 23.8436 36.4896 21.7951 33.9712 21.7951H27.844C27.2882 21.7951 26.8361 21.3429 26.8361 20.7871V15.5266C26.8361 13.453 25.1486 11.7655 23.0749 11.7655C21.0013 11.7655 19.3138 13.453 19.3138 15.5266V19.8327C19.3138 21.7384 17.8353 23.2878 15.9672 23.4374C15.9589 22.7112 15.637 22.0641 15.1347 21.6112V8.32623C19.989 8.02792 24.764 7.03585 29.3432 5.37246C33.9226 7.03567 38.6966 8.02775 43.5516 8.32623V9.25822H45.2232V6.73576L44.4259 6.69903C39.366 6.46759 34.3888 5.45786 29.6331 3.69854L29.343 3.59067L29.0529 3.69765C24.2963 5.45697 19.3192 6.4667 14.2602 6.69814L13.4628 6.73576V20.9594H11.7912V5.07915H11.9825C17.9526 5.07915 23.7907 3.97581 29.3428 1.79944C34.895 3.97581 40.733 5.07915 46.7032 5.07915H46.8945V28.6218H46.8948Z" fill="#333333"/>
<path d="M45.2234 12.6013H43.5518V14.2729H45.2234V12.6013Z" fill="#333333"/>
<path d="M12.6269 35.1677H6.77637V36.8393H12.6269V35.1677Z" fill="#333333"/>
</svg>
