<svg width="32" height="32" viewBox="0 0 32 32" fill="none" xmlns="http://www.w3.org/2000/svg">
<path d="M16.0003 29.3334C23.3641 29.3334 29.3337 23.3639 29.3337 16.0001C29.3337 8.63628 23.3641 2.66675 16.0003 2.66675C8.63653 2.66675 2.66699 8.63628 2.66699 16.0001C2.66699 23.3639 8.63653 29.3334 16.0003 29.3334Z" fill="white"/>
<path d="M16 9.44147C18.1361 9.44147 18.3891 9.4496 19.2327 9.48807C20.0127 9.52367 20.4363 9.654 20.7182 9.76353C21.0916 9.90867 21.3581 10.082 21.638 10.3619C21.918 10.6419 22.0913 10.9084 22.2365 11.2818C22.346 11.5637 22.4763 11.9873 22.5119 12.7673C22.5504 13.6109 22.5585 13.8639 22.5585 15.9999C22.5585 18.1361 22.5504 18.3891 22.5119 19.2327C22.4763 20.0127 22.346 20.4362 22.2365 20.7181C22.0913 21.0915 21.918 21.3581 21.6381 21.638C21.3581 21.9179 21.0916 22.0913 20.7182 22.2364C20.4363 22.346 20.0127 22.4763 19.2327 22.5119C18.3893 22.5503 18.1363 22.5585 16 22.5585C13.8637 22.5585 13.6108 22.5503 12.7673 22.5119C11.9873 22.4763 11.5637 22.346 11.2818 22.2364C10.9084 22.0913 10.6419 21.9179 10.362 21.638C10.0821 21.3581 9.90867 21.0915 9.76353 20.7181C9.654 20.4362 9.52367 20.0127 9.48807 19.2327C9.4496 18.3891 9.44147 18.1361 9.44147 15.9999C9.44147 13.8639 9.4496 13.6109 9.48807 12.7673C9.52367 11.9873 9.654 11.5637 9.76353 11.2818C9.90867 10.9084 10.082 10.6419 10.362 10.362C10.6419 10.082 10.9084 9.90867 11.2818 9.76353C11.5637 9.654 11.9873 9.52367 12.7673 9.48807C13.6109 9.4496 13.8639 9.44147 16 9.44147ZM16 8C13.8273 8 13.5549 8.0092 12.7016 8.04813C11.8501 8.087 11.2685 8.2222 10.7597 8.42C10.2336 8.6244 9.78747 8.89793 9.34273 9.34273C8.89793 9.78747 8.6244 10.2336 8.42 10.7597C8.2222 11.2685 8.087 11.8501 8.04813 12.7016C8.0092 13.5549 8 13.8273 8 15.9999C8 18.1727 8.0092 18.4451 8.04813 19.2983C8.087 20.1499 8.2222 20.7314 8.42 21.2403C8.6244 21.7663 8.89793 22.2125 9.34273 22.6573C9.78747 23.102 10.2336 23.3755 10.7597 23.5799C11.2685 23.7777 11.8501 23.9129 12.7016 23.9518C13.5549 23.9907 13.8273 23.9999 16 23.9999C18.1727 23.9999 18.4451 23.9907 19.2984 23.9518C20.1499 23.9129 20.7315 23.7777 21.2403 23.5799C21.7664 23.3755 22.2125 23.102 22.6573 22.6573C23.102 22.2125 23.3756 21.7663 23.58 21.2403C23.7778 20.7314 23.913 20.1499 23.9519 19.2983C23.9908 18.4451 24 18.1727 24 15.9999C24 13.8273 23.9908 13.5549 23.9519 12.7016C23.913 11.8501 23.7778 11.2685 23.58 10.7597C23.3756 10.2336 23.102 9.78747 22.6573 9.34273C22.2125 8.89793 21.7664 8.6244 21.2403 8.42C20.7315 8.2222 20.1499 8.087 19.2984 8.04813C18.4451 8.0092 18.1727 8 16 8Z" fill="#C13584"/>
<path d="M16.0036 11.8955C13.7347 11.8955 11.8955 13.7347 11.8955 16.0036C11.8955 18.2724 13.7347 20.1116 16.0036 20.1116C18.2724 20.1116 20.1117 18.2724 20.1117 16.0036C20.1117 13.7347 18.2724 11.8955 16.0036 11.8955ZM16.0036 18.6702C14.5308 18.6702 13.3369 17.4763 13.3369 16.0036C13.3369 14.5308 14.5308 13.3369 16.0036 13.3369C17.4764 13.3369 18.6702 14.5308 18.6702 16.0036C18.6702 17.4763 17.4764 18.6702 16.0036 18.6702Z" fill="#C13584"/>
<path d="M21.2335 11.7308C21.2335 12.261 20.8037 12.6908 20.2735 12.6908C19.7433 12.6908 19.3135 12.261 19.3135 11.7308C19.3135 11.2006 19.7433 10.7708 20.2735 10.7708C20.8037 10.7708 21.2335 11.2006 21.2335 11.7308Z" fill="#FF00B8"/>
</svg>
