<svg width="230" height="230" viewBox="0 0 230 230" fill="none" xmlns="http://www.w3.org/2000/svg">
<path fill-rule="evenodd" clip-rule="evenodd" d="M150.761 203.836C156.666 201.592 165.88 196.661 172.548 192.179C180.526 186.816 191.487 176.588 196.946 169.413C206.75 156.526 211.879 143.418 214.827 123.716C216.809 110.467 216.95 107.103 217.133 68.6473C217.327 27.7489 217.504 30.316 214.264 27.0756C211.137 23.9483 212.987 24.0888 174.898 24.0888C138.112 24.0888 139.399 24.0138 136.36 26.3321C135.584 26.9239 134.464 28.2336 133.871 29.2423L132.792 31.0767L132.684 65.9221L132.576 100.767L133.439 102.773C134.452 105.128 137.232 107.752 139.332 108.335C140.193 108.574 147.367 108.738 157.05 108.739L173.322 108.742L173.322 111.252C173.322 116.969 171.692 126.671 169.652 133.099C166.939 141.645 162.8 148.536 156.805 154.486C151.914 159.342 146.25 163.197 138.288 167.093C132.467 169.941 131.593 170.648 129.994 173.807C129.57 174.643 129.288 176.134 129.274 177.608C129.254 179.742 129.52 180.608 131.486 184.817C138.97 200.834 139.582 201.85 142.708 203.445C145.001 204.614 148.293 204.774 150.761 203.836ZM32.6817 204.129C34.8947 203.72 45.3002 198.628 50.9348 195.197C68.0291 184.786 81.3727 170.838 89.1811 155.218C94.8907 143.797 97.719 132.259 99.7108 112.259C100.24 106.945 100.392 98.9981 100.535 69.0498C100.733 27.7025 100.911 30.3208 97.6663 27.0756C94.5394 23.9487 96.3869 24.0888 58.3219 24.0888C21.2197 24.0888 22.5202 24.0081 19.5031 26.495C18.7116 27.1475 17.5988 28.6153 17.0298 29.7569L15.9956 31.8325L16.0043 66.3936C16.0131 100.3 16.0287 100.989 16.8265 102.752C17.7613 104.818 19.1872 106.426 21.1865 107.671C22.5518 108.522 22.9806 108.547 39.7486 108.742L56.9132 108.941L56.7914 112.136C56.4763 120.387 54.4846 130.206 51.7182 137.143C48.874 144.275 45.4675 149.478 40.2981 154.584C35.5935 159.231 30.7902 162.542 23.2505 166.336C16.0227 169.972 14.0026 171.648 13.1844 174.686C12.2161 178.282 12.726 180.093 17.4917 190C20.1515 195.529 22.5118 199.882 23.4222 200.938C25.735 203.62 29.1195 204.787 32.6817 204.129Z" fill="#3E66DF" fill-opacity="0.2"/>
</svg>
