<svg width="22" height="22" viewBox="0 0 22 22" fill="none" xmlns="http://www.w3.org/2000/svg">
<path d="M13.7326 4.02188C13.7326 3.33438 13.1311 2.90469 12.392 2.90469C12.392 2.90469 9.57324 2.90469 9.59043 2.90469C8.86855 2.90469 8.2498 3.33438 8.2498 4.02188V5.91251H5.62012V19.0609H16.3795V5.91251H13.7326V4.02188ZM12.7529 5.91251H9.22949V3.97032H12.7529V5.91251Z" fill="#216EB1"/>
<path d="M1.2373 7.87189C1.2373 7.90627 1.2373 17.0328 1.2373 17.0328C1.2373 18.3047 2.1998 19.0438 3.19668 19.0438H4.64043V5.87814H3.19668C2.18262 5.87814 1.2373 6.73752 1.2373 7.87189Z" fill="#216EB1"/>
<path d="M18.8031 5.87814H17.3594V19.0438H18.8031C19.8 19.0438 20.7625 18.3047 20.7625 17.0328C20.7625 17.0328 20.7625 7.90627 20.7625 7.87189C20.7625 6.73752 19.8172 5.87814 18.8031 5.87814Z" fill="#216EB1"/>
</svg>
