<svg width="32" height="32" viewBox="0 0 32 32" fill="none" xmlns="http://www.w3.org/2000/svg">
<path d="M16.0003 29.3334C23.3641 29.3334 29.3337 23.3639 29.3337 16.0001C29.3337 8.63628 23.3641 2.66675 16.0003 2.66675C8.63653 2.66675 2.66699 8.63628 2.66699 16.0001C2.66699 23.3639 8.63653 29.3334 16.0003 29.3334Z" fill="white"/>
<path fill-rule="evenodd" clip-rule="evenodd" d="M24 10.8723C23.4118 11.1337 22.7787 11.3097 22.1148 11.3891C22.7926 10.9827 23.3131 10.3396 23.5579 9.57325C22.9243 9.94972 22.2209 10.2223 21.4738 10.37C20.8749 9.73219 20.0211 9.33325 19.0777 9.33325C17.265 9.33325 15.7952 10.8031 15.7952 12.6157C15.7952 12.8727 15.8245 13.1234 15.8805 13.3639C13.1522 13.2274 10.7337 11.9203 9.1146 9.93425C8.83193 10.4191 8.67033 10.9827 8.67033 11.5843C8.67033 12.7229 9.249 13.7277 10.1305 14.3164C9.59187 14.2993 9.08633 14.1516 8.64313 13.9057V13.9468C8.64313 15.5377 9.77533 16.8639 11.2761 17.1663C11.0009 17.241 10.7107 17.2815 10.4116 17.2815C10.1999 17.2815 9.994 17.2607 9.79347 17.2223C10.2111 18.5263 11.4238 19.4755 12.8599 19.5022C11.7368 20.3821 10.3215 20.9074 8.7834 20.9074C8.5178 20.9074 8.25653 20.8919 8 20.861C9.45273 21.7922 11.1779 22.3361 13.0317 22.3361C19.0691 22.3361 22.3708 17.3343 22.3708 12.997C22.3708 12.8546 22.3681 12.7128 22.3612 12.5725C23.0033 12.1085 23.56 11.5305 24 10.8723Z" fill="#1DA1F2"/>
</svg>
