<svg width="32" height="32" viewBox="0 0 32 32" fill="none" xmlns="http://www.w3.org/2000/svg">
<path d="M15.9998 29.3333C23.3636 29.3333 29.3332 23.3638 29.3332 16C29.3332 8.63621 23.3636 2.66667 15.9998 2.66667C8.63604 2.66667 2.6665 8.63621 2.6665 16C2.6665 23.3638 8.63604 29.3333 15.9998 29.3333Z" fill="#1DA1F2"/>
<path fill-rule="evenodd" clip-rule="evenodd" d="M24 10.8724C23.4118 11.1337 22.7787 11.3097 22.1148 11.3892C22.7926 10.9828 23.3131 10.3397 23.5579 9.57333C22.9243 9.94979 22.2209 10.2223 21.4738 10.3701C20.8749 9.73226 20.0211 9.33333 19.0777 9.33333C17.265 9.33333 15.7952 10.8031 15.7952 12.6158C15.7952 12.8728 15.8245 13.1235 15.8805 13.364C13.1522 13.2275 10.7337 11.9203 9.1146 9.93433C8.83193 10.4191 8.67033 10.9828 8.67033 11.5844C8.67033 12.723 9.249 13.7277 10.1305 14.3165C9.59187 14.2994 9.08633 14.1517 8.64313 13.9058V13.9469C8.64313 15.5377 9.77533 16.864 11.2761 17.1664C11.0009 17.2411 10.7107 17.2816 10.4116 17.2816C10.1999 17.2816 9.994 17.2608 9.79347 17.2224C10.2111 18.5263 11.4238 19.4756 12.8599 19.5023C11.7368 20.3822 10.3215 20.9075 8.7834 20.9075C8.5178 20.9075 8.25653 20.892 8 20.8611C9.45273 21.7923 11.1779 22.3362 13.0317 22.3362C19.0691 22.3362 22.3708 17.3344 22.3708 12.9971C22.3708 12.8547 22.3681 12.7129 22.3612 12.5726C23.0033 12.1086 23.56 11.5305 24 10.8724Z" fill="white"/>
</svg>
