<svg width="136" height="136" viewBox="0 0 136 136" fill="none" xmlns="http://www.w3.org/2000/svg">
<path d="M68.8164 82.144L102 60.928V68.816L68.8164 89.76V82.144Z" fill="#4DE0F9"/>
<path d="M96.0159 69.088L88.6719 73.712V29.92H96.0159V69.088Z" fill="#4DE0F9"/>
<path d="M112.608 105.808H68.8164V116.416H112.608V105.808Z" fill="#4DE0F9"/>
<path d="M101.185 73.168L112.609 65.552V116.416H101.185V73.168Z" fill="#4DE0F9"/>
<path d="M110.16 113.424H27.2002V61.2H30.4642V110.16H106.896V61.2H110.16V113.424Z" fill="#216EB1"/>
<path d="M68.8162 88.128C68.5442 88.128 68.2722 88.128 68.0002 87.856L28.0162 62.56C27.4722 62.288 27.2002 61.744 27.2002 61.2C27.2002 60.656 27.4722 60.112 28.0162 59.84L43.5202 50.048L45.1522 52.768L31.8242 61.2L68.5442 84.592L105.264 61.2L91.9362 52.768L93.5682 50.048L109.072 59.84C109.616 60.112 109.888 60.656 109.888 61.2C109.888 61.744 109.616 62.288 109.072 62.56L69.3602 87.856C69.3602 88.128 69.0882 88.128 68.8162 88.128Z" fill="#216EB1"/>
<path d="M38.8964 94.384H34.8164V106.896H38.8964V94.384Z" fill="#4DE0F9"/>
<path d="M38.8964 86.496H34.8164V90.576H38.8964V86.496Z" fill="#4DE0F9"/>
<path d="M94.6566 71.264H91.3926V26.656H46.2406V70.72H42.9766V23.392H94.6566V71.264Z" fill="#216EB1"/>
<path d="M68.8165 88.4L53.3125 78.88L55.2165 75.888L68.8165 84.592L82.9605 75.616L84.8645 78.336L68.8165 88.4Z" fill="#216EB1"/>
<path d="M78.3357 62.288H74.2557C72.8957 62.288 71.5357 61.2 71.5357 59.568V56.032H65.2797C63.9197 56.032 62.5597 54.944 62.5597 53.312V47.056C62.5597 45.696 63.6477 44.336 65.2797 44.336H72.0797C73.4397 44.336 74.7997 45.424 74.7997 47.056V58.752H77.7917V40.8H59.8397V58.752H67.9997V62.016H59.0237C57.6637 62.016 56.3037 60.928 56.3037 59.296V39.984C56.3037 38.624 57.3917 37.264 59.0237 37.264H78.3357C79.6957 37.264 81.0557 38.352 81.0557 39.984V59.296C81.0557 60.928 79.6957 62.288 78.3357 62.288ZM66.0957 52.768H71.5357V47.872H66.0957V52.768Z" fill="#216EB1"/>
</svg>
