<svg width="32" height="32" viewBox="0 0 32 32" fill="none" xmlns="http://www.w3.org/2000/svg">
<path d="M15.9998 29.3333C23.3636 29.3333 29.3332 23.3638 29.3332 16C29.3332 8.63621 23.3636 2.66667 15.9998 2.66667C8.63604 2.66667 2.6665 8.63621 2.6665 16C2.6665 23.3638 8.63604 29.3333 15.9998 29.3333Z" fill="#3B5998"/>
<path fill-rule="evenodd" clip-rule="evenodd" d="M19.5432 11.3052C19.1276 11.2221 18.5664 11.16 18.2134 11.16C17.2576 11.16 17.1956 11.5755 17.1956 12.2405V13.4241H19.5848L19.3765 15.8758H17.1956V23.3333H14.204V15.8758H12.6665V13.4241H14.204V11.9075C14.204 9.8302 15.1804 8.66667 17.6316 8.66667C18.4833 8.66667 19.1066 8.79134 19.9167 8.95754L19.5432 11.3052Z" fill="white"/>
</svg>
