<svg width="20" height="15" viewBox="0 0 20 15" fill="none" xmlns="http://www.w3.org/2000/svg">
<path d="M12.375 3.75C12.375 4.49592 12.0787 5.21129 11.5512 5.73874C11.0238 6.26618 10.3084 6.5625 9.5625 6.5625C8.81658 6.5625 8.10121 6.26618 7.57376 5.73874C7.04632 5.21129 6.75 4.49592 6.75 3.75C6.75 3.00408 7.04632 2.28871 7.57376 1.76126C8.10121 1.23382 8.81658 0.9375 9.5625 0.9375C10.3084 0.9375 11.0238 1.23382 11.5512 1.76126C12.0787 2.28871 12.375 3.00408 12.375 3.75ZM13.3125 3.75C13.3125 2.75544 12.9174 1.80161 12.2142 1.09835C11.5109 0.395088 10.5571 0 9.5625 0C8.56794 0 7.61411 0.395088 6.91085 1.09835C6.20759 1.80161 5.8125 2.75544 5.8125 3.75C5.8125 4.74456 6.20759 5.69839 6.91085 6.40165C7.61411 7.10491 8.56794 7.5 9.5625 7.5C10.5571 7.5 11.5109 7.10491 12.2142 6.40165C12.9174 5.69839 13.3125 4.74456 13.3125 3.75ZM3.9375 14.5312C3.9375 13.7926 4.08299 13.0611 4.36568 12.3787C4.64836 11.6962 5.06269 11.0761 5.58502 10.5538C6.10735 10.0314 6.72745 9.61711 7.40991 9.33443C8.09236 9.05175 8.82381 8.90625 9.5625 8.90625C10.3012 8.90625 11.0326 9.05175 11.7151 9.33443C12.3976 9.61711 13.0176 10.0314 13.54 10.5538C14.0623 11.0761 14.4766 11.6962 14.7593 12.3787C15.042 13.0611 15.1875 13.7926 15.1875 14.5312C15.1875 14.6556 15.2369 14.7748 15.3248 14.8627C15.4127 14.9506 15.5319 15 15.6562 15C15.7806 15 15.8998 14.9506 15.9877 14.8627C16.0756 14.7748 16.125 14.6556 16.125 14.5312C16.125 10.9069 13.1869 7.96875 9.5625 7.96875C5.93813 7.96875 3 10.9069 3 14.5312C3 14.6556 3.04939 14.7748 3.13729 14.8627C3.2252 14.9506 3.34443 15 3.46875 15C3.59307 15 3.7123 14.9506 3.80021 14.8627C3.88811 14.7748 3.9375 14.6556 3.9375 14.5312Z" fill="black"/>
</svg>
