<svg width="15" height="15" viewBox="0 0 15 15" fill="none" xmlns="http://www.w3.org/2000/svg">
<g clip-path="url(#clip0_3_504)">
<path d="M8.69375 15C4.3125 15 0.75 11.6563 0.75 7.55001C0.75 3.44376 4.3125 8.90798e-06 8.69375 8.90798e-06C10.5628 -0.00769026 12.3789 0.620448 13.8437 1.78126C13.9247 1.84563 13.9915 1.92605 14.0399 2.01747C14.0883 2.1089 14.1173 2.20935 14.125 2.31251C14.1431 2.51251 14.0825 2.71251 13.9562 2.86876L12.5812 4.51876C12.5166 4.59888 12.4359 4.66469 12.3445 4.71202C12.253 4.75936 12.1528 4.78719 12.05 4.79376C11.8481 4.80767 11.6487 4.74269 11.4937 4.61251C10.7085 3.95698 9.71662 3.60052 8.69375 3.60626C7.62474 3.59403 6.59311 3.99921 5.81815 4.73566C5.04318 5.47211 4.58599 6.48176 4.54375 7.55001C4.58767 8.60889 5.04871 9.60739 5.82624 10.3275C6.60376 11.0477 7.63461 11.431 8.69375 11.3938C9.46071 11.3971 10.2151 11.1989 10.8812 10.8188V9.62501H9.16875C8.74375 9.62501 8.4 9.28126 8.4 8.85626V6.98126C8.4 6.78376 8.47625 6.59376 8.6125 6.45001C8.76081 6.30275 8.95982 6.21778 9.16875 6.21251H13.4812C13.6846 6.21414 13.8792 6.29566 14.023 6.43948C14.1668 6.58329 14.2484 6.77788 14.25 6.98126V12.3875C14.2507 12.5452 14.2162 12.701 14.1492 12.8437C14.0822 12.9864 13.9842 13.1124 13.8625 13.2125C12.392 14.3769 10.5695 15.0072 8.69375 15ZM8.69375 0.943759C4.8375 0.943759 1.69375 3.90626 1.69375 7.55001C1.69375 11.1938 4.81875 14.0563 8.69375 14.0563C10.3484 14.0666 11.9582 13.5183 13.2625 12.5C13.2768 12.489 13.2882 12.4748 13.2958 12.4585C13.3034 12.4421 13.307 12.4242 13.3062 12.4063V7.15626H9.375V8.67501H11.875V11.3313L11.6687 11.475C10.8001 12.0454 9.78288 12.3475 8.74375 12.3438C7.43333 12.3808 6.16161 11.8972 5.20695 10.9988C4.25229 10.1003 3.69246 8.86026 3.65 7.55001C3.69397 6.23196 4.25117 4.98325 5.20276 4.07019C6.15434 3.15713 7.42501 2.65199 8.74375 2.66251C9.93009 2.657 11.0837 3.05109 12.0187 3.78126L13.125 2.40626C11.8479 1.44666 10.2911 0.932857 8.69375 0.943759Z" fill="black"/>
</g>
<defs>
<clipPath id="clip0_3_504">
<rect width="15" height="15" fill="white"/>
</clipPath>
</defs>
</svg>
