<svg width="19" height="19" viewBox="0 0 19 19" fill="none" xmlns="http://www.w3.org/2000/svg">
<path d="M14.2429 6.23785e-05C13.3305 -0.00462441 12.4363 0.254886 11.6681 0.747265C10.9 1.23964 10.2908 1.94384 9.91415 2.77484C9.53745 3.60583 9.40936 4.5281 9.54532 5.43031C9.68128 6.33251 10.0755 7.17607 10.6803 7.85915L10.5403 7.36479L10.0207 10.3547C10.0012 10.4672 10.0147 10.583 10.0594 10.6881C10.1042 10.7933 10.1783 10.8832 10.273 10.9472C10.3676 11.0112 10.4787 11.0465 10.5929 11.0489C10.7072 11.0512 10.8196 11.0206 10.9168 10.9605L13.6243 9.2916L13.1798 9.36436C13.831 9.51436 14.5065 9.52504 15.1622 9.39572C15.8178 9.2664 16.4387 8.99999 16.9841 8.61395C17.5296 8.22791 17.9873 7.73096 18.3273 7.15567C18.6673 6.58038 18.8819 5.93973 18.957 5.27572C19.0321 4.61171 18.966 3.93932 18.7631 3.30262C18.5602 2.66593 18.225 2.0793 17.7795 1.58119C17.3341 1.08308 16.7884 0.684727 16.1782 0.412244C15.568 0.139761 14.9072 -0.000701418 14.2389 6.23785e-05H14.2429ZM14.2397 1.18652C14.7409 1.18581 15.2365 1.29103 15.6942 1.49529C16.1518 1.69955 16.5611 1.99823 16.8952 2.37174C17.2293 2.74526 17.4808 3.18518 17.633 3.66266C17.7852 4.14014 17.8347 4.6444 17.7784 5.14238C17.7221 5.64036 17.5612 6.12081 17.3061 6.55224C17.0511 6.98367 16.7078 7.35632 16.2987 7.64578C15.8896 7.93523 15.4239 8.13495 14.9322 8.23184C14.4405 8.32872 13.9339 8.32059 13.4456 8.20797C13.2935 8.17307 13.1338 8.1995 13.0011 8.28153L10.2936 9.95047L11.1897 10.5571L11.7094 7.56728C11.7245 7.47959 11.7197 7.38963 11.6953 7.30406C11.671 7.21849 11.6276 7.13949 11.5686 7.07292C11.1155 6.56135 10.8202 5.92956 10.7183 5.25382C10.6164 4.57808 10.7123 3.88729 10.9944 3.26486C11.2765 2.64243 11.7328 2.11498 12.3081 1.74618C12.8834 1.37737 13.5532 1.183 14.2365 1.18652H14.2397ZM7.41759 10.3816C7.41759 10.6542 7.36389 10.9242 7.25954 11.1761C7.1552 11.428 7.00226 11.6569 6.80946 11.8497C6.61665 12.0425 6.38777 12.1955 6.13586 12.2998C5.88395 12.4041 5.61396 12.4579 5.34129 12.4579C5.06863 12.4579 4.79864 12.4041 4.54673 12.2998C4.29482 12.1955 4.06593 12.0425 3.87313 11.8497C3.68033 11.6569 3.52739 11.428 3.42304 11.1761C3.3187 10.9242 3.26499 10.6542 3.26499 10.3816C3.26499 9.83088 3.48375 9.30277 3.87313 8.91339C4.26251 8.52401 4.79062 8.30525 5.34129 8.30525C5.89196 8.30525 6.42008 8.52401 6.80946 8.91339C7.19884 9.30277 7.41759 9.83088 7.41759 10.3816ZM8.60405 10.3816C8.60405 9.51622 8.26029 8.68632 7.64841 8.07444C7.03652 7.46255 6.20663 7.1188 5.34129 7.1188C4.47596 7.1188 3.64606 7.46255 3.03418 8.07444C2.42229 8.68632 2.07854 9.51622 2.07854 10.3816C2.07854 11.2469 2.42229 12.0768 3.03418 12.6887C3.64606 13.3006 4.47596 13.6443 5.34129 13.6443C6.20663 13.6443 7.03652 13.3006 7.64841 12.6887C8.26029 12.0768 8.60405 11.2469 8.60405 10.3816ZM10.6748 18.311C10.5007 17.0199 9.86427 15.8358 8.88345 14.9783C7.90263 14.1209 6.64408 13.6483 5.34129 13.6483C4.03851 13.6483 2.77995 14.1209 1.79914 14.9783C0.81832 15.8358 0.181835 17.0199 0.00777739 18.311C-0.00502416 18.3893 -0.00199807 18.4694 0.0166767 18.5464C0.0353514 18.6235 0.0692956 18.6961 0.116502 18.7598C0.163707 18.8236 0.223216 18.8772 0.291509 18.9175C0.359801 18.9579 0.43549 18.9841 0.514099 18.9947C0.592708 19.0053 0.67264 19 0.749169 18.9791C0.825697 18.9583 0.897267 18.9223 0.959645 18.8733C1.02202 18.8243 1.07394 18.7633 1.11234 18.6939C1.15073 18.6245 1.17481 18.5481 1.18316 18.4692C1.31813 17.4621 1.81405 16.5382 2.5788 15.8691C3.34355 15.2 4.32516 14.8312 5.34129 14.8312C6.35743 14.8312 7.33903 15.2 8.10378 15.8691C8.86853 16.5382 9.36445 17.4621 9.49942 18.4692C9.50777 18.5481 9.53186 18.6245 9.57025 18.6939C9.60864 18.7633 9.66056 18.8243 9.72294 18.8733C9.78532 18.9223 9.85689 18.9583 9.93342 18.9791C10.0099 19 10.0899 19.0053 10.1685 18.9947C10.2471 18.9841 10.3228 18.9579 10.3911 18.9175C10.4594 18.8772 10.5189 18.8236 10.5661 18.7598C10.6133 18.6961 10.6472 18.6235 10.6659 18.5464C10.6846 18.4694 10.6876 18.3893 10.6748 18.311Z" fill="black"/>
</svg>
