<svg width="60" height="60" viewBox="0 0 60 60" fill="none" xmlns="http://www.w3.org/2000/svg">
<path d="M57.0492 30.4936H51.0078L49.318 19.5068C50.4069 20.2297 51.7121 20.6516 53.1148 20.6516C56.9116 20.6516 60.0001 17.5612 60.0001 13.7655C60.0001 9.96975 56.9116 6.88013 53.1148 6.88013C49.318 6.88013 46.2295 9.9687 46.2295 13.7655C46.2295 14.5633 46.373 15.3264 46.624 16.0397L42.8608 12.8174C42.0955 12.1623 41.1208 11.8054 40.1144 11.8054H26.5574C24.9305 11.8054 23.6064 13.1292 23.6064 14.7563C23.6064 16.3834 24.9303 17.7072 26.5574 17.7072H38.7354L28.499 25.7462C26.64 27.2069 25.5737 29.3993 25.5737 31.7639C25.5737 34.3804 26.8879 36.7861 29.0901 38.2025L38.2179 44.0697L30.5233 47.2762C29.7502 47.5979 29.1423 48.2333 28.8551 49.0183C28.5678 49.8052 28.6219 50.6835 29.0055 51.4291C29.5366 52.4598 30.5891 53.0599 31.6839 53.0599C32.0901 53.0599 32.5022 52.9773 32.8946 52.8033L43.5018 48.1212C45.1583 47.3501 46.2293 45.6691 46.2293 43.8395C46.2293 42.5944 45.7246 41.3765 44.8443 40.4983L38.8158 34.4689L44.4989 29.4948L44.9377 33.0032C45.1786 34.936 46.8281 36.3956 48.7748 36.3956H57.0488C58.6757 36.3956 59.9997 35.0718 59.9997 33.4447C60.0001 31.8174 58.6763 30.4936 57.0492 30.4936ZM53.1148 8.84629C55.8265 8.84629 58.0329 11.0525 58.0329 13.7644C58.0329 16.4763 55.8267 18.6825 53.1148 18.6825C50.4031 18.6825 48.1967 16.4763 48.1967 13.7644C48.1967 11.0525 50.4031 8.84629 53.1148 8.84629ZM57.0492 34.428H48.7752C47.8192 34.428 47.0086 33.7089 46.8896 32.7598L45.9915 25.5775L35.937 34.373L43.4538 41.8897C43.9683 42.4022 44.2623 43.1125 44.2623 43.8402C44.2623 44.9074 43.6367 45.889 42.6885 46.3315L32.0989 51.0046C31.5953 51.2297 31.005 51.0193 30.7532 50.5306C30.6185 50.2679 30.6007 49.9728 30.7012 49.6954C30.8026 49.4201 31.0071 49.2057 31.2787 49.0926L39.6383 45.6097C40.1862 45.3825 40.5591 44.874 40.6111 44.2829C40.6632 43.6918 40.386 43.1253 39.8872 42.8055L30.1535 36.5475C28.5179 35.4942 27.5411 33.7059 27.5411 31.7614C27.5411 30.0047 28.3338 28.3738 29.7148 27.2879L41.8072 17.7912L39.7514 15.7394H26.5574C26.0154 15.7394 25.5737 15.2987 25.5737 14.7557C25.5737 14.2126 26.0154 13.772 26.5574 13.772H40.1144C40.6514 13.772 41.1718 13.9608 41.5799 14.31L47.2799 19.1985L49.3199 32.4606H57.049C57.591 32.4606 58.0327 32.9012 58.0327 33.4443C58.0327 33.9873 57.5912 34.428 57.0492 34.428Z" fill="#333333"/>
<path d="M14.4767 50.6544C13.983 51.2161 13.1518 51.3124 12.545 50.8795C12.2126 50.6424 12 50.2884 11.948 49.8841C11.896 49.4789 12.0109 49.0844 12.2726 48.7707L25.3466 33.0821L23.8358 31.822L10.7607 47.5114C10.1539 48.2394 9.87545 49.1964 9.99652 50.1367C10.1176 51.077 10.63 51.9318 11.402 52.4827C12.004 52.9116 12.6973 53.1199 13.3868 53.1199C14.3391 53.1199 15.2823 52.7206 15.9561 51.9514L27.2971 39.0032L25.8167 37.7069L14.4767 50.6544Z" fill="#333333"/>
<path d="M29.5084 19.6738H7.86914V21.641H29.5084V19.6738Z" fill="#333333"/>
<path d="M5.90122 19.6738H1.9668V21.641H5.90122V19.6738Z" fill="#333333"/>
<path d="M24.5901 23.6082H9.83594V25.5754H24.5901V23.6082Z" fill="#333333"/>
<path d="M7.86899 23.6082H3.93457V25.5754H7.86899V23.6082Z" fill="#333333"/>
<path d="M23.6063 27.5427H10.8193V29.5099H23.6063V27.5427Z" fill="#333333"/>
<path d="M8.85229 27.5427H5.90137V29.5099H8.85229V27.5427Z" fill="#333333"/>
<path d="M22.6228 15.7395H5.90137V17.7067H22.6228V15.7395Z" fill="#333333"/>
<path d="M3.93442 15.7395H0V17.7067H3.93442V15.7395Z" fill="#333333"/>
<path d="M22.6226 17.7065H1.9668V19.6738H22.6226V17.7065Z" fill="#F9BA48"/>
<path d="M29.5083 21.6411H3.93457V23.6083H29.5083V21.6411Z" fill="#F9BA48"/>
<path d="M24.59 25.5754H5.90137V27.5426H24.59V25.5754Z" fill="#F9BA48"/>
<path d="M23.6068 29.5098H7.86914V31.477H23.6068V29.5098Z" fill="#F9BA48"/>
</svg>
