<svg width="28" height="28" viewBox="0 0 28 28" fill="none" xmlns="http://www.w3.org/2000/svg">
<path d="M9.33919 15.1667C9.33919 15.811 8.81686 16.3333 8.17253 16.3333C7.5282 16.3333 7.00586 15.811 7.00586 15.1667C7.00586 14.5223 7.5282 14 8.17253 14C8.81686 14 9.33919 14.5223 9.33919 15.1667Z" fill="white"/>
<path d="M19.8327 16.3333C20.4769 16.3333 20.9993 15.811 20.9993 15.1667C20.9993 14.5223 20.4769 14 19.8327 14C19.1883 14 18.666 14.5223 18.666 15.1667C18.666 15.811 19.1883 16.3333 19.8327 16.3333Z" fill="white"/>
<path d="M11.0654 17.2083C11.0654 16.7251 11.4572 16.3333 11.9405 16.3333H16.0056C16.4888 16.3333 16.8806 16.7251 16.8806 17.2083C16.8806 17.6916 16.4888 18.0833 16.0056 18.0833H11.9405C11.4572 18.0833 11.0654 17.6916 11.0654 17.2083Z" fill="white"/>
<path d="M10.8099 2.32422C10.3266 2.32422 9.93489 2.71596 9.93489 3.19922V5.25H9.16019C7.49189 5.25 6.0196 6.34042 5.53323 7.93625L5.46301 8.16666H4.375C3.89175 8.16666 3.5 8.55842 3.5 9.04166C3.5 9.52491 3.89175 9.91666 4.375 9.91666H4.99686L4.76141 10.8815C4.00506 11.3422 3.5 12.1746 3.5 13.125V23.0417C3.5 24.1692 4.41408 25.0833 5.54167 25.0833H7.29167C8.41925 25.0833 9.33333 24.1692 9.33333 23.0417V21.5833H18.6667V23.0417C18.6667 24.1692 19.5807 25.0833 20.7083 25.0833H22.4583C23.5859 25.0833 24.5 24.1692 24.5 23.0417V13.125C24.5 12.1738 23.994 11.3407 23.2366 10.8803L22.9957 9.91666H23.625C24.1082 9.91666 24.5 9.52491 24.5 9.04166C24.5 8.55842 24.1082 8.16666 23.625 8.16666H22.526L22.4617 7.95214C21.9805 6.34832 20.5043 5.25 18.8299 5.25H18.0833V3.19922C18.0833 2.71596 17.6916 2.32422 17.2083 2.32422H10.8099ZM16.3333 5.25H11.6849V4.07422H16.3333V5.25ZM9.16019 7H18.8299C19.7315 7 20.5264 7.5914 20.7854 8.45499L21.031 9.27361L21.3376 10.5H6.65587L6.95526 9.27312L7.20721 8.44644C7.4691 7.58715 8.26188 7 9.16019 7ZM5.25 19.8333V13.125C5.25 12.6418 5.64175 12.25 6.125 12.25H21.875C22.3582 12.25 22.75 12.6418 22.75 13.125V19.8333H5.25ZM5.25 23.0417V21.5833H7.58333V23.0417C7.58333 23.2028 7.45275 23.3333 7.29167 23.3333H5.54167C5.38058 23.3333 5.25 23.2028 5.25 23.0417ZM22.75 21.5833V23.0417C22.75 23.2028 22.6194 23.3333 22.4583 23.3333H20.7083C20.5472 23.3333 20.4167 23.2028 20.4167 23.0417V21.5833H22.75Z" fill="white"/>
</svg>
