<svg width="24" height="24" viewBox="0 0 24 24" fill="none" xmlns="http://www.w3.org/2000/svg">
<path d="M10.2683 11.9965L16.9927 18.4612C17.1779 18.6387 17.2797 18.8762 17.2797 19.1293C17.2797 19.3826 17.1779 19.6199 16.9927 19.7978L16.4035 20.3639C16.2186 20.5421 15.9715 20.6401 15.7081 20.6401C15.4448 20.6401 15.198 20.5421 15.013 20.3639L7.00645 12.6672C6.82071 12.4888 6.719 12.2503 6.71973 11.9969C6.719 11.7423 6.82056 11.5042 7.00645 11.3257L15.0055 3.63633C15.1905 3.45819 15.4373 3.36013 15.7008 3.36013C15.9642 3.36013 16.211 3.45819 16.3962 3.63633L16.9853 4.2025C17.3686 4.571 17.3686 5.17088 16.9853 5.53924L10.2683 11.9965Z" fill="#808080"/>
</svg>
