<svg width="28" height="28" viewBox="0 0 28 28" fill="none" xmlns="http://www.w3.org/2000/svg">
<path d="M25.4852 5.55685H22.6432V4.42416C22.6432 3.01864 21.4997 1.87512 20.0941 1.87512C19.4557 1.87512 18.8713 2.11105 18.4236 2.50031C18.3976 1.11721 17.2643 0 15.875 0C14.8302 0 13.9301 0.631914 13.537 1.53371C13.0706 1.02359 12.4 0.703172 11.656 0.703172C10.2504 0.703172 9.10691 1.84663 9.10691 3.25221V3.90627C8.65924 3.51723 8.07512 3.28152 7.43687 3.28152C6.12382 3.28152 5.03975 4.27962 4.9027 5.55691H2.51466C2.27191 5.55691 2.0752 5.75367 2.0752 5.99638V17.716C2.0752 17.9587 2.27191 18.1555 2.51466 18.1555H4.88788V27.5605C4.88788 27.8032 5.08459 27.9999 5.32735 27.9999H16.5782C16.821 27.9999 17.0177 27.8032 17.0177 27.5605C17.0177 27.3178 16.821 27.121 16.5782 27.121H5.76688V23.5758C5.76688 20.5871 8.19839 18.1555 11.1872 18.1555H17.7502C17.993 18.1555 18.1897 17.9587 18.1897 17.716V13.1453C18.1897 12.4183 18.7812 11.8269 19.5081 11.8269H20.4457C21.1727 11.8269 21.7642 12.4183 21.7642 13.1453V27.121H18.6878C18.445 27.121 18.2483 27.3178 18.2483 27.5605C18.2483 27.8032 18.445 27.9999 18.6878 27.9999H22.2037C22.4465 27.9999 22.6432 27.8032 22.6432 27.5605V18.1555H25.4852C25.7279 18.1555 25.9246 17.9587 25.9246 17.716V5.99638C25.9246 5.75367 25.7279 5.55685 25.4852 5.55685ZM18.4241 4.42416C18.4241 3.50328 19.1732 2.75412 20.0941 2.75412C21.015 2.75412 21.7642 3.50328 21.7642 4.42416V5.55685H18.4241V4.42416ZM14.205 3.25221V3.18363V2.54904C14.205 1.62816 14.9542 0.878992 15.875 0.878992C16.7959 0.878992 17.5451 1.62816 17.5451 2.54904V4.35564V4.42422V5.55691H14.205V3.25221ZM7.43692 4.16046C8.26456 4.16046 8.95313 4.7658 9.08416 5.55685H5.78968C5.92066 4.7658 6.60928 4.16046 7.43692 4.16046ZM5.76688 20.3698V18.1555H7.98117C7.07073 18.6961 6.30741 19.4593 5.76688 20.3698ZM17.3107 13.1453V14.5184C16.499 15.5265 15.2929 16.1046 13.9999 16.1046C11.6573 16.1046 9.75157 14.1988 9.75157 11.8562C9.75157 9.5136 11.6574 7.6078 13.9999 7.6078C16.172 7.6078 17.9741 9.21955 18.2194 11.3671C17.6693 11.7668 17.3107 12.4149 17.3107 13.1453ZM25.0457 17.2765H22.6432V16.7477C22.6529 16.7484 22.6626 16.7492 22.6725 16.7492H24.0788C24.3216 16.7492 24.5183 16.5524 24.5183 16.3097C24.5183 16.067 24.3216 15.8703 24.0788 15.8703H22.6725C22.6626 15.8703 22.6529 15.8711 22.6432 15.8717V13.1455C22.6432 11.9337 21.6574 10.948 20.4457 10.948H19.5081C19.3524 10.948 19.2005 10.9645 19.0537 10.9955C18.8634 9.87109 18.3033 8.84056 17.4515 8.06471C16.5058 7.20333 15.28 6.72897 13.9999 6.72897C11.1727 6.72897 8.87258 9.02907 8.87258 11.8563C8.87258 14.6835 11.1727 16.9836 13.9999 16.9836C15.2291 16.9836 16.3932 16.5507 17.3107 15.7724V17.2767H2.95413V6.4359H10.7184C10.9611 6.4359 11.1579 6.23913 11.1579 5.99643C11.1579 5.75373 10.9611 5.55696 10.7184 5.55696H9.98591V3.25221C9.98591 2.33133 10.7351 1.58216 11.656 1.58216C12.5768 1.58216 13.326 2.33133 13.326 3.25221V5.55691H12.7107C12.468 5.55691 12.2712 5.75367 12.2712 5.99638C12.2712 6.23908 12.468 6.43584 12.7107 6.43584H25.0457V17.2765Z" fill="#216EB1"/>
<path d="M24.0784 7.43204H20.3281C20.0854 7.43204 19.8887 7.6288 19.8887 7.87151C19.8887 8.11421 20.0854 8.31098 20.3281 8.31098H24.0784C24.3212 8.31098 24.5179 8.11421 24.5179 7.87151C24.5179 7.6288 24.3212 7.43204 24.0784 7.43204Z" fill="#216EB1"/>
<path d="M24.0793 9.30716H21.2666C21.0239 9.30716 20.8271 9.50392 20.8271 9.74663C20.8271 9.98933 21.0239 10.1861 21.2666 10.1861H24.0793C24.3221 10.1861 24.5188 9.98933 24.5188 9.74663C24.5188 9.50392 24.3221 9.30716 24.0793 9.30716Z" fill="#216EB1"/>
<path d="M7.67122 7.43204H3.92091C3.67816 7.43204 3.48145 7.6288 3.48145 7.87151C3.48145 8.11421 3.67816 8.31098 3.92091 8.31098H7.67122C7.91398 8.31098 8.11069 8.11421 8.11069 7.87151C8.11069 7.6288 7.91398 7.43204 7.67122 7.43204Z" fill="#216EB1"/>
<path d="M6.73366 9.30716H3.92091C3.67816 9.30716 3.48145 9.50392 3.48145 9.74663C3.48145 9.98933 3.67816 10.1861 3.92091 10.1861H6.73366C6.97641 10.1861 7.17313 9.98933 7.17313 9.74663C7.17313 9.50392 6.97641 9.30716 6.73366 9.30716Z" fill="#216EB1"/>
<path d="M5.32726 15.8701H3.92091C3.67816 15.8701 3.48145 16.0669 3.48145 16.3096C3.48145 16.5523 3.67816 16.7491 3.92091 16.7491H5.32726C5.57002 16.7491 5.76673 16.5523 5.76673 16.3096C5.76673 16.0669 5.57007 15.8701 5.32726 15.8701Z" fill="#216EB1"/>
<path d="M8.60851 15.8701H7.20216C6.95941 15.8701 6.7627 16.0669 6.7627 16.3096C6.7627 16.5523 6.95941 16.7491 7.20216 16.7491H8.60851C8.85127 16.7491 9.04798 16.5523 9.04798 16.3096C9.04798 16.0669 8.85127 15.8701 8.60851 15.8701Z" fill="#216EB1"/>
<path d="M6.03034 11.6511C5.40028 11.6511 4.8877 12.1638 4.8877 12.7938C4.8877 13.4238 5.40034 13.9364 6.03034 13.9364C6.66034 13.9364 7.17298 13.4239 7.17298 12.7938C7.17298 12.1637 6.66034 11.6511 6.03034 11.6511ZM6.03034 13.0575C5.88498 13.0575 5.76663 12.9392 5.76663 12.7938C5.76663 12.6484 5.88492 12.5301 6.03034 12.5301C6.17575 12.5301 6.29404 12.6483 6.29404 12.7938C6.29398 12.9391 6.1757 13.0575 6.03034 13.0575Z" fill="#216EB1"/>
<path d="M15.6409 10.1862C15.8836 10.1862 16.0803 9.98939 16.0803 9.74669C16.0803 9.50399 15.8836 9.30722 15.6409 9.30722H14.4396V8.80913C14.4396 8.56642 14.2429 8.36966 14.0001 8.36966C13.7574 8.36966 13.5607 8.56642 13.5607 8.80913V9.30722H13.1798C12.6143 9.30722 12.1543 9.76725 12.1543 10.3327V11.2702C12.1543 11.8356 12.6143 12.2957 13.1798 12.2957H13.5607V13.5263H12.3594C12.1166 13.5263 11.9199 13.723 11.9199 13.9657C11.9199 14.2084 12.1166 14.4052 12.3594 14.4052H13.5607V14.9033C13.5607 15.146 13.7574 15.3428 14.0001 15.3428C14.2429 15.3428 14.4396 15.146 14.4396 14.9033V14.4052H14.8205C15.3859 14.4052 15.8459 13.9452 15.8459 13.3797V12.4422C15.8459 11.8768 15.3859 11.4167 14.8205 11.4167H14.4396V10.1862H15.6409ZM13.5607 11.4167H13.1798C13.0989 11.4167 13.0333 11.3509 13.0333 11.2702V10.3327C13.0333 10.2519 13.0989 10.1862 13.1798 10.1862H13.5607V11.4167ZM14.8205 12.2957C14.9013 12.2957 14.967 12.3614 14.967 12.4422V13.3797C14.967 13.4605 14.9013 13.5263 14.8205 13.5263H14.4396V12.2957H14.8205Z" fill="#216EB1"/>
</svg>
