<svg width="30" height="30" viewBox="0 0 30 30" fill="none" xmlns="http://www.w3.org/2000/svg">
<path d="M11.3579 23.7885C10.9918 23.7885 10.6943 24.0851 10.6943 24.4517C10.6943 24.8182 10.9918 25.1153 11.3579 25.1153C11.7244 25.1153 12.0214 24.8182 12.0214 24.4517C12.0214 24.0851 11.7244 23.7885 11.3579 23.7885Z" fill="#216EB1"/>
<path d="M11.3579 21.3093C10.9918 21.3093 10.6943 21.6063 10.6943 21.9728C10.6943 22.3389 10.9918 22.636 11.3579 22.636C11.7244 22.636 12.0214 22.3389 12.0214 21.9728C12.0214 21.6062 11.7244 21.3093 11.3579 21.3093Z" fill="#216EB1"/>
<path d="M28.794 13.3307H12.0212H11.8996H10.6941H6.02381H4.81836V14.5358V26.9305V28.1361H6.02387H10.6941H11.8997H12.0213H28.794H29.9995V26.9305V14.5358V13.3307H28.794ZM28.794 26.9305H12.0212C12.0212 26.564 11.7242 26.2673 11.3577 26.2673C10.9916 26.2673 10.6941 26.5639 10.6941 26.9305H6.02387V14.5358H10.6941C10.6941 14.9023 10.9916 15.1989 11.3577 15.1989C11.7242 15.1989 12.0212 14.9023 12.0212 14.5358H28.7939L28.794 26.9305Z" fill="#216EB1"/>
<path d="M11.3579 18.8304C10.9918 18.8304 10.6943 19.1274 10.6943 19.4939C10.6943 19.86 10.9918 20.1571 11.3579 20.1571C11.7244 20.1571 12.0214 19.86 12.0214 19.4939C12.0214 19.1274 11.7244 18.8304 11.3579 18.8304Z" fill="#216EB1"/>
<path d="M11.3579 16.3515C10.9918 16.3515 10.6943 16.6481 10.6943 17.0146C10.6943 17.3812 10.9918 17.6782 11.3579 17.6782C11.7244 17.6782 12.0214 17.3812 12.0214 17.0146C12.0214 16.6481 11.7244 16.3515 11.3579 16.3515Z" fill="#216EB1"/>
<path d="M6.90504 11.4976L21.6479 3.49816L26.3295 12.125H27.7005L22.7071 2.92271L22.1326 1.86392L21.0725 2.43808L6.33094 10.4384L6.22406 10.4961L5.16445 11.0706L1.05961 13.2985L0 13.8735L0.57498 14.9331L3.61365 20.5327V18.0052L1.63465 14.3582L3.61365 13.2837L6.90504 11.4976Z" fill="#216EB1"/>
</svg>
